<svg width="32" height="32" viewBox="0 0 32 32" fill="none" xmlns="http://www.w3.org/2000/svg">
  <rect width="32" height="32" fill="#0C100F"/>
  <g transform="translate(0.5, 2.5) scale(0.84)">
    <path fill-rule="evenodd" clip-rule="evenodd" d="M36.5983 8.12705H34.5835V6.09532H32.5318V4.06353L30.4986 4.06351V0L28.4654 2.79021e-05V2.03182H26.4321V4.06358H24.3989V8.12705H26.4321V10.1588H28.4654V12.1906H32.5318V10.1588H36.5983V8.12705ZM6.99774 8.12705H11.0202V6.09532H8.13295V3.56695V3.01553V1.01588H3.04986V4.06353H2.03325V6.09532H8.53183e-06V7.54557V7.78459L0 10.1588H6.99774V8.12705ZM27.5504 12.2376V16.3003L27.5512 16.3012H30.4986V22.3878H26.4321V24.4283H17.2826V26.46H13.2161V24.4283H12.1994V26.46H8.94628V24.4142H5.99805V22.3878H1.93158V18.3329H3.96482V14.2694H5.99805V12.2376H8.03131V10.2059H12.0978V8.17411H22.3656V10.2059H24.3989V12.2376H27.5504ZM6.09974 20.3177H10.1662L10.1853 16.2556H6.09974V20.3177ZM21.349 18.3329H22.3656V13.6683H17.3842V16.3012H16.266V20.3647H21.349V18.3329Z" fill="#85FCC8"/>
  </g>
</svg>
